<?xml version="1.0" standalone="no"?>
<!DOCTYPE svg PUBLIC "-//W3C//DTD SVG 20010904//EN"
 "http://www.w3.org/TR/2001/REC-SVG-20010904/DTD/svg10.dtd">
<svg version="1.0" xmlns="http://www.w3.org/2000/svg"
 width="178.000000pt" height="178.000000pt" viewBox="0 0 178.000000 178.000000"
 preserveAspectRatio="xMidYMid meet">
<metadata>
Created by potrace 1.11, written by Peter Selinger 2001-2013
</metadata>
<g transform="translate(0.000000,178.000000) scale(0.100000,-0.100000)"
fill="#000000" stroke="none">
<path d="M568 1700 c-40 -27 -78 -68 -78 -85 0 -3 9 -5 20 -5 21 0 120 90 120
110 0 16 -14 12 -62 -20z"/>
<path d="M1150 1720 c0 -28 97 -110 130 -110 22 0 -25 62 -69 91 -47 31 -61
35 -61 19z"/>
<path d="M442 1661 c-37 -48 -72 -134 -58 -148 18 -19 84 75 104 149 15 55 -1
55 -46 -1z"/>
<path d="M1287 1677 c13 -68 90 -183 110 -164 20 20 -63 176 -102 191 -11 4
-13 -1 -8 -27z"/>
<path d="M331 1608 c-35 -77 -46 -167 -22 -191 28 -28 71 131 54 199 l-10 39
-22 -47z"/>
<path d="M1415 1602 c-7 -52 8 -135 31 -171 40 -60 50 56 14 151 -12 32 -25
60 -30 63 -4 3 -11 -16 -15 -43z"/>
<path d="M851 1575 l-25 -24 -34 21 -34 21 -36 -35 -37 -35 -40 18 c-21 9 -43
15 -48 12 -20 -12 -57 -86 -57 -114 0 -52 79 -228 112 -250 17 -11 92 -233 92
-274 l1 -40 145 0 145 0 2 35 c2 59 73 248 118 315 43 64 85 169 85 214 0 32
-47 111 -66 111 -8 0 -30 -6 -49 -14 -33 -14 -34 -14 -64 21 l-31 36 -2 -39
c-1 -38 -1 -38 -5 -6 -3 18 -7 32 -11 30 -66 -33 -61 -33 -90 -5 -34 32 -40
33 -71 2z m44 -237 c0 -98 2 -178 4 -178 2 0 10 8 17 18 12 15 15 15 24 2 5
-8 11 -19 13 -25 8 -19 15 0 21 50 3 28 8 73 12 100 4 28 7 59 9 70 8 81 19
135 26 135 4 0 6 -10 3 -22 -2 -13 -7 -48 -10 -78 -3 -30 -7 -66 -10 -80 -2
-14 -6 -45 -9 -70 -3 -25 -7 -60 -10 -78 -3 -29 -2 -32 12 -21 12 11 17 10 28
-4 17 -23 22 -22 29 11 15 60 118 374 122 370 2 -2 -1 -20 -7 -39 -5 -19 -12
-42 -14 -53 -3 -10 -15 -53 -29 -95 -13 -42 -34 -108 -45 -147 -12 -41 -28
-75 -37 -78 -25 -9 -64 -7 -64 4 0 6 -5 10 -11 10 -5 0 -7 -4 -4 -10 4 -6 -8
-10 -29 -10 -25 0 -36 4 -36 15 0 8 -4 15 -10 15 -5 0 -10 -7 -10 -15 0 -10
-10 -15 -28 -15 -43 0 -53 27 -68 184 -3 33 -8 63 -9 66 -2 3 -6 48 -9 100
l-5 95 15 -90 c7 -49 16 -108 18 -130 9 -93 18 -161 23 -179 5 -17 6 -18 15
-3 7 13 13 15 29 7 19 -10 19 -5 20 207 1 120 5 200 8 178 3 -22 6 -120 6
-217z m-184 -115 c25 -85 33 -97 44 -64 7 25 29 18 43 -14 10 -21 8 -23 -16
-28 -15 -3 -33 -1 -39 5 -9 7 -13 7 -13 -1 0 -17 -27 -13 -34 5 -4 12 -2 15 9
10 8 -3 15 -4 15 -2 0 3 -18 64 -41 138 -64 209 -79 262 -78 273 1 12 76 -209
110 -322z m373 -98 c-4 -8 -13 -15 -21 -15 -13 0 -13 3 -3 15 7 8 16 15 21 15
5 0 6 -7 3 -15z m-273 -42 c0 -16 2 -36 4 -45 2 -13 -3 -18 -20 -18 -16 0 -25
8 -31 28 -12 42 -11 47 11 54 33 10 35 9 36 -19z m70 15 c0 -7 2 -25 3 -40 1
-16 -1 -28 -4 -29 -3 0 -15 -2 -26 -5 -18 -3 -23 2 -26 30 -2 19 -2 39 0 45 5
15 52 14 53 -1z m75 -21 c-2 -18 -4 -38 -5 -44 -1 -7 -11 -11 -23 -9 -19 2
-24 10 -26 43 -3 38 -2 40 27 41 29 1 30 -1 27 -31z m68 24 c3 -4 1 -24 -5
-44 -7 -27 -15 -37 -29 -37 -15 0 -20 7 -20 29 0 16 2 36 5 43 6 15 42 21 49
9z m-283 -28 c5 -15 8 -36 6 -47 -3 -20 -4 -19 -14 4 -6 14 -13 35 -17 48 -10
32 12 28 25 -5z m329 17 c0 -6 -7 -27 -16 -48 -10 -20 -19 -48 -21 -61 -6 -34
-25 -69 -30 -54 -3 7 5 43 17 80 12 37 24 74 26 81 4 15 24 16 24 2z m-125
-109 c-1 -14 -3 -33 -4 -41 0 -9 -10 -16 -21 -16 -17 0 -20 7 -20 47 0 44 1
46 24 42 20 -4 24 -10 21 -32z m-124 22 c7 -50 7 -73 -1 -78 -12 -8 -43 61
-35 75 7 12 35 13 36 3z m62 -8 c8 -18 0 -56 -13 -69 -15 -15 -30 10 -30 52 0
25 4 32 19 32 10 0 21 -7 24 -15z m112 5 c3 -5 -2 -26 -12 -47 l-17 -38 -4 33
c-2 19 -1 40 2 48 6 16 22 18 31 4z m-225 -26 c11 -29 13 -61 3 -50 -4 3 -12
22 -19 41 -13 40 1 48 16 9z"/>
<path d="M242 1543 c-37 -69 -31 -253 9 -253 31 0 42 148 17 230 -14 43 -15
44 -26 23z"/>
<path d="M1510 1511 c-22 -94 -17 -182 13 -219 15 -18 35 22 42 80 5 50 -12
150 -30 175 -11 14 -14 9 -25 -36z"/>
<path d="M128 1418 c-17 -46 21 -195 62 -241 l28 -32 7 28 c11 41 -2 106 -34
173 -31 65 -55 93 -63 72z"/>
<path d="M1627 1413 c-45 -51 -86 -185 -73 -239 7 -25 8 -26 26 -9 27 24 59
94 65 141 15 114 11 139 -18 107z"/>
<path d="M73 1231 c10 -79 95 -221 132 -221 18 0 9 73 -15 120 -25 48 -98 140
-112 140 -7 0 -9 -14 -5 -39z"/>
<path d="M1657 1228 c-62 -71 -113 -197 -85 -214 16 -10 67 47 99 112 31 63
49 144 32 144 -5 0 -25 -19 -46 -42z"/>
<path d="M10 1102 c0 -18 78 -129 109 -155 45 -37 90 -60 107 -53 12 5 11 12
-5 43 -25 49 -73 98 -138 140 -52 33 -73 40 -73 25z"/>
<path d="M1713 1088 c-84 -45 -168 -144 -161 -188 3 -18 4 -18 38 -2 47 23
122 97 154 153 39 68 35 72 -31 37z"/>
<path d="M20 915 c64 -73 167 -135 222 -135 97 0 -81 137 -202 156 l-45 7 25
-28z"/>
<path d="M1692 925 c-62 -19 -146 -73 -166 -105 -21 -37 -21 -40 12 -40 55 0
179 77 231 143 12 15 11 17 -10 16 -13 0 -43 -6 -67 -14z"/>
<path d="M736 808 c14 -104 65 -158 147 -160 85 -1 133 35 156 118 22 78 30
74 -148 74 l-159 0 4 -32z"/>
<path d="M45 790 c-8 -13 81 -76 141 -99 57 -22 125 -33 142 -22 26 16 -62 83
-138 104 -74 21 -138 28 -145 17z"/>
<path d="M1634 785 c-73 -16 -129 -43 -167 -81 -74 -74 116 -39 226 42 68 50
49 62 -59 39z"/>
<path d="M120 635 c18 -22 75 -50 130 -65 34 -9 57 -9 103 1 51 11 57 14 44
27 -28 27 -116 49 -204 51 -79 2 -85 1 -73 -14z"/>
<path d="M1445 629 c-27 -10 -55 -25 -63 -32 -11 -12 -4 -16 48 -27 54 -11 68
-11 113 3 60 19 117 52 117 67 0 18 -160 10 -215 -11z"/>
<path d="M807 624 c-1 -1 -45 -4 -97 -8 -136 -9 -260 -32 -436 -82 l-22 -6 30
-91 c17 -51 31 -93 32 -94 1 -1 26 5 56 13 30 8 71 17 90 20 19 3 51 9 70 14
19 5 64 11 100 15 36 4 79 9 95 11 40 5 301 4 345 -1 19 -2 53 -7 76 -10 22
-3 58 -8 80 -10 21 -3 85 -16 140 -28 l101 -23 30 91 30 90 -21 8 c-56 22
-223 58 -331 72 -93 12 -359 25 -368 19z"/>
<path d="M135 414 c-50 -19 -94 -39 -98 -43 -4 -4 22 -16 58 -26 36 -9 65 -22
65 -29 0 -6 -11 -38 -24 -71 -14 -33 -23 -61 -22 -63 4 -4 249 87 257 96 4 4
3 17 -2 29 -7 18 -14 21 -41 17 -33 -6 -33 -6 -53 58 -12 37 -26 64 -35 65 -8
1 -55 -14 -105 -33z"/>
<path d="M1524 433 c-3 -10 -9 -25 -13 -33 -5 -9 -12 -31 -16 -49 -7 -31 -9
-33 -41 -26 -30 5 -35 3 -43 -17 -11 -30 -9 -32 41 -51 24 -8 81 -29 127 -46
46 -17 86 -30 88 -27 2 2 -8 29 -22 61 -14 32 -25 63 -25 70 0 6 19 17 42 24
103 31 103 29 -11 72 -57 21 -108 39 -113 39 -5 0 -11 -8 -14 -17z"/>
<path d="M873 383 c-7 -2 -13 -11 -13 -19 0 -8 6 -23 13 -35 11 -18 8 -24 -21
-50 -37 -33 -84 -38 -120 -13 -19 13 -20 17 -8 30 19 18 10 44 -14 44 -31 0
-42 -23 -23 -50 16 -22 15 -24 -11 -47 -18 -15 -40 -23 -66 -23 -40 0 -54 11
-55 45 0 30 -49 28 -53 -2 -3 -17 3 -24 22 -29 14 -3 28 -15 32 -27 3 -11 12
-35 20 -53 l14 -32 47 15 c162 50 316 49 538 -4 17 -3 23 5 38 47 13 36 26 54
43 60 27 11 31 32 9 50 -20 17 -48 -6 -41 -32 13 -52 -116 -41 -144 12 -9 16
-8 20 5 20 20 0 20 46 0 54 -8 3 -21 -2 -30 -10 -18 -18 -19 -26 -4 -41 17
-17 3 -31 -38 -39 -41 -8 -90 13 -112 47 -10 18 -10 23 6 34 28 21 -1 62 -34
48z"/>
<path d="M765 133 c-44 -8 -90 -15 -102 -17 -12 -1 -28 -8 -36 -14 -8 -7 -21
-10 -29 -7 -20 8 -39 -17 -28 -35 8 -12 13 -13 30 -2 11 6 31 12 44 12 14 0
28 4 31 10 3 5 17 10 31 10 14 0 34 5 44 10 13 7 21 7 25 0 4 -7 12 -7 24 0
10 5 31 9 47 9 16 0 36 1 44 1 35 2 148 -10 185 -20 22 -6 51 -13 65 -15 13
-2 26 -9 28 -14 2 -6 13 -11 24 -11 14 0 19 6 16 23 -2 12 -7 21 -13 20 -5 0
-17 3 -26 8 -9 4 -31 11 -49 14 -18 3 -40 9 -49 14 -9 5 -22 6 -29 4 -7 -3
-20 -2 -30 2 -30 13 -164 12 -247 -2z"/>
</g>
</svg>
